<mxfile host="app.diagrams.net" modified="2023-09-06T21:15:45.801Z" agent="Mozilla/5.0 (Windows NT 10.0; Win64; x64) AppleWebKit/537.36 (KHTML, like Gecko) Chrome/116.0.0.0 Safari/537.36" etag="7-er_Pr2CsjPUerTJQ0H" version="21.7.2" type="device">
  <diagram name="Page-1" id="9hVO0B_rtU01Il7ZjYWn">
    <mxGraphModel dx="1434" dy="910" grid="1" gridSize="10" guides="1" tooltips="1" connect="1" arrows="1" fold="1" page="1" pageScale="1" pageWidth="850" pageHeight="1100" math="0" shadow="0">
      <root>
        <mxCell id="0" />
        <mxCell id="1" parent="0" />
        <mxCell id="Lf1DXo_oPqp00C4e2mV5-1" value="" style="childLayout=tableLayout;recursiveResize=0;shadow=0;fillColor=#1ba1e2;fontColor=#ffffff;strokeColor=#006EAF;" vertex="1" parent="1">
          <mxGeometry x="40" y="40" width="240" height="187" as="geometry" />
        </mxCell>
        <mxCell id="Lf1DXo_oPqp00C4e2mV5-2" value="" style="shape=tableRow;horizontal=0;startSize=0;swimlaneHead=0;swimlaneBody=0;top=0;left=0;bottom=0;right=0;dropTarget=0;collapsible=0;recursiveResize=0;expand=0;fontStyle=0;fillColor=#1ba1e2;strokeColor=#006EAF;fontColor=#ffffff;" vertex="1" parent="Lf1DXo_oPqp00C4e2mV5-1">
          <mxGeometry width="240" height="47" as="geometry" />
        </mxCell>
        <mxCell id="Lf1DXo_oPqp00C4e2mV5-3" value="X0" style="connectable=0;recursiveResize=0;strokeColor=#006EAF;fillColor=#1ba1e2;align=center;whiteSpace=wrap;html=1;fontColor=#ffffff;" vertex="1" parent="Lf1DXo_oPqp00C4e2mV5-2">
          <mxGeometry width="60" height="47" as="geometry">
            <mxRectangle width="60" height="47" as="alternateBounds" />
          </mxGeometry>
        </mxCell>
        <mxCell id="Lf1DXo_oPqp00C4e2mV5-4" value="X1" style="connectable=0;recursiveResize=0;strokeColor=#006EAF;fillColor=#1ba1e2;align=center;whiteSpace=wrap;html=1;fontColor=#ffffff;" vertex="1" parent="Lf1DXo_oPqp00C4e2mV5-2">
          <mxGeometry x="60" width="60" height="47" as="geometry">
            <mxRectangle width="60" height="47" as="alternateBounds" />
          </mxGeometry>
        </mxCell>
        <mxCell id="Lf1DXo_oPqp00C4e2mV5-5" value="X3" style="connectable=0;recursiveResize=0;strokeColor=#006EAF;fillColor=#1ba1e2;align=center;whiteSpace=wrap;html=1;fontColor=#ffffff;" vertex="1" parent="Lf1DXo_oPqp00C4e2mV5-2">
          <mxGeometry x="120" width="60" height="47" as="geometry">
            <mxRectangle width="60" height="47" as="alternateBounds" />
          </mxGeometry>
        </mxCell>
        <mxCell id="Lf1DXo_oPqp00C4e2mV5-6" value="X4" style="connectable=0;recursiveResize=0;strokeColor=#006EAF;fillColor=#1ba1e2;align=center;whiteSpace=wrap;html=1;fontColor=#ffffff;" vertex="1" parent="Lf1DXo_oPqp00C4e2mV5-2">
          <mxGeometry x="180" width="60" height="47" as="geometry">
            <mxRectangle width="60" height="47" as="alternateBounds" />
          </mxGeometry>
        </mxCell>
        <mxCell id="Lf1DXo_oPqp00C4e2mV5-7" style="shape=tableRow;horizontal=0;startSize=0;swimlaneHead=0;swimlaneBody=0;top=0;left=0;bottom=0;right=0;dropTarget=0;collapsible=0;recursiveResize=0;expand=0;fontStyle=0;fillColor=#1ba1e2;strokeColor=#006EAF;fontColor=#ffffff;" vertex="1" parent="Lf1DXo_oPqp00C4e2mV5-1">
          <mxGeometry y="47" width="240" height="46" as="geometry" />
        </mxCell>
        <mxCell id="Lf1DXo_oPqp00C4e2mV5-8" value="X1" style="connectable=0;recursiveResize=0;strokeColor=#006EAF;fillColor=#1ba1e2;align=center;whiteSpace=wrap;html=1;fontColor=#ffffff;" vertex="1" parent="Lf1DXo_oPqp00C4e2mV5-7">
          <mxGeometry width="60" height="46" as="geometry">
            <mxRectangle width="60" height="46" as="alternateBounds" />
          </mxGeometry>
        </mxCell>
        <mxCell id="Lf1DXo_oPqp00C4e2mV5-9" value="X2" style="connectable=0;recursiveResize=0;strokeColor=#006EAF;fillColor=#1ba1e2;align=center;whiteSpace=wrap;html=1;fontColor=#ffffff;" vertex="1" parent="Lf1DXo_oPqp00C4e2mV5-7">
          <mxGeometry x="60" width="60" height="46" as="geometry">
            <mxRectangle width="60" height="46" as="alternateBounds" />
          </mxGeometry>
        </mxCell>
        <mxCell id="Lf1DXo_oPqp00C4e2mV5-10" value="X4" style="connectable=0;recursiveResize=0;strokeColor=#006EAF;fillColor=#1ba1e2;align=center;whiteSpace=wrap;html=1;fontColor=#ffffff;" vertex="1" parent="Lf1DXo_oPqp00C4e2mV5-7">
          <mxGeometry x="120" width="60" height="46" as="geometry">
            <mxRectangle width="60" height="46" as="alternateBounds" />
          </mxGeometry>
        </mxCell>
        <mxCell id="Lf1DXo_oPqp00C4e2mV5-11" value="X5" style="connectable=0;recursiveResize=0;strokeColor=#006EAF;fillColor=#1ba1e2;align=center;whiteSpace=wrap;html=1;fontColor=#ffffff;" vertex="1" parent="Lf1DXo_oPqp00C4e2mV5-7">
          <mxGeometry x="180" width="60" height="46" as="geometry">
            <mxRectangle width="60" height="46" as="alternateBounds" />
          </mxGeometry>
        </mxCell>
        <mxCell id="Lf1DXo_oPqp00C4e2mV5-12" style="shape=tableRow;horizontal=0;startSize=0;swimlaneHead=0;swimlaneBody=0;top=0;left=0;bottom=0;right=0;dropTarget=0;collapsible=0;recursiveResize=0;expand=0;fontStyle=0;fillColor=#1ba1e2;strokeColor=#006EAF;fontColor=#ffffff;" vertex="1" parent="Lf1DXo_oPqp00C4e2mV5-1">
          <mxGeometry y="93" width="240" height="47" as="geometry" />
        </mxCell>
        <mxCell id="Lf1DXo_oPqp00C4e2mV5-13" value="X3" style="connectable=0;recursiveResize=0;strokeColor=#006EAF;fillColor=#1ba1e2;align=center;whiteSpace=wrap;html=1;fontColor=#ffffff;" vertex="1" parent="Lf1DXo_oPqp00C4e2mV5-12">
          <mxGeometry width="60" height="47" as="geometry">
            <mxRectangle width="60" height="47" as="alternateBounds" />
          </mxGeometry>
        </mxCell>
        <mxCell id="Lf1DXo_oPqp00C4e2mV5-14" value="X4" style="connectable=0;recursiveResize=0;strokeColor=#006EAF;fillColor=#1ba1e2;align=center;whiteSpace=wrap;html=1;fontColor=#ffffff;" vertex="1" parent="Lf1DXo_oPqp00C4e2mV5-12">
          <mxGeometry x="60" width="60" height="47" as="geometry">
            <mxRectangle width="60" height="47" as="alternateBounds" />
          </mxGeometry>
        </mxCell>
        <mxCell id="Lf1DXo_oPqp00C4e2mV5-15" value="X6" style="connectable=0;recursiveResize=0;strokeColor=#006EAF;fillColor=#1ba1e2;align=center;whiteSpace=wrap;html=1;fontColor=#ffffff;" vertex="1" parent="Lf1DXo_oPqp00C4e2mV5-12">
          <mxGeometry x="120" width="60" height="47" as="geometry">
            <mxRectangle width="60" height="47" as="alternateBounds" />
          </mxGeometry>
        </mxCell>
        <mxCell id="Lf1DXo_oPqp00C4e2mV5-16" value="X7" style="connectable=0;recursiveResize=0;strokeColor=#006EAF;fillColor=#1ba1e2;align=center;whiteSpace=wrap;html=1;fontColor=#ffffff;" vertex="1" parent="Lf1DXo_oPqp00C4e2mV5-12">
          <mxGeometry x="180" width="60" height="47" as="geometry">
            <mxRectangle width="60" height="47" as="alternateBounds" />
          </mxGeometry>
        </mxCell>
        <mxCell id="Lf1DXo_oPqp00C4e2mV5-17" style="shape=tableRow;horizontal=0;startSize=0;swimlaneHead=0;swimlaneBody=0;top=0;left=0;bottom=0;right=0;dropTarget=0;collapsible=0;recursiveResize=0;expand=0;fontStyle=0;fillColor=#1ba1e2;strokeColor=#006EAF;fontColor=#ffffff;" vertex="1" parent="Lf1DXo_oPqp00C4e2mV5-1">
          <mxGeometry y="140" width="240" height="47" as="geometry" />
        </mxCell>
        <mxCell id="Lf1DXo_oPqp00C4e2mV5-18" value="X4" style="connectable=0;recursiveResize=0;strokeColor=#006EAF;fillColor=#1ba1e2;align=center;whiteSpace=wrap;html=1;fontColor=#ffffff;" vertex="1" parent="Lf1DXo_oPqp00C4e2mV5-17">
          <mxGeometry width="60" height="47" as="geometry">
            <mxRectangle width="60" height="47" as="alternateBounds" />
          </mxGeometry>
        </mxCell>
        <mxCell id="Lf1DXo_oPqp00C4e2mV5-19" value="X5" style="connectable=0;recursiveResize=0;strokeColor=#006EAF;fillColor=#1ba1e2;align=center;whiteSpace=wrap;html=1;fontColor=#ffffff;" vertex="1" parent="Lf1DXo_oPqp00C4e2mV5-17">
          <mxGeometry x="60" width="60" height="47" as="geometry">
            <mxRectangle width="60" height="47" as="alternateBounds" />
          </mxGeometry>
        </mxCell>
        <mxCell id="Lf1DXo_oPqp00C4e2mV5-20" value="X7" style="connectable=0;recursiveResize=0;strokeColor=#006EAF;fillColor=#1ba1e2;align=center;whiteSpace=wrap;html=1;fontColor=#ffffff;" vertex="1" parent="Lf1DXo_oPqp00C4e2mV5-17">
          <mxGeometry x="120" width="60" height="47" as="geometry">
            <mxRectangle width="60" height="47" as="alternateBounds" />
          </mxGeometry>
        </mxCell>
        <mxCell id="Lf1DXo_oPqp00C4e2mV5-21" value="X8" style="connectable=0;recursiveResize=0;strokeColor=#006EAF;fillColor=#1ba1e2;align=center;whiteSpace=wrap;html=1;fontColor=#ffffff;" vertex="1" parent="Lf1DXo_oPqp00C4e2mV5-17">
          <mxGeometry x="180" width="60" height="47" as="geometry">
            <mxRectangle width="60" height="47" as="alternateBounds" />
          </mxGeometry>
        </mxCell>
        <mxCell id="Lf1DXo_oPqp00C4e2mV5-23" value="" style="childLayout=tableLayout;recursiveResize=0;shadow=0;fillColor=#60a917;fontColor=#ffffff;strokeColor=#2D7600;gradientColor=#1BA1E2;gradientDirection=radial;" vertex="1" parent="1">
          <mxGeometry x="690" y="33.5" width="60" height="187" as="geometry" />
        </mxCell>
        <mxCell id="Lf1DXo_oPqp00C4e2mV5-24" value="" style="shape=tableRow;horizontal=0;startSize=0;swimlaneHead=0;swimlaneBody=0;top=0;left=0;bottom=0;right=0;dropTarget=0;collapsible=0;recursiveResize=0;expand=0;fontStyle=0;fillColor=#1ba1e2;strokeColor=#006EAF;fontColor=#ffffff;" vertex="1" parent="Lf1DXo_oPqp00C4e2mV5-23">
          <mxGeometry width="60" height="47" as="geometry" />
        </mxCell>
        <mxCell id="Lf1DXo_oPqp00C4e2mV5-25" value="Y0" style="connectable=0;recursiveResize=0;strokeColor=#2D7600;fillColor=#60a917;align=center;whiteSpace=wrap;html=1;fontColor=#ffffff;gradientColor=#1BA1E2;gradientDirection=radial;" vertex="1" parent="Lf1DXo_oPqp00C4e2mV5-24">
          <mxGeometry width="60" height="47" as="geometry">
            <mxRectangle width="60" height="47" as="alternateBounds" />
          </mxGeometry>
        </mxCell>
        <mxCell id="Lf1DXo_oPqp00C4e2mV5-26" style="shape=tableRow;horizontal=0;startSize=0;swimlaneHead=0;swimlaneBody=0;top=0;left=0;bottom=0;right=0;dropTarget=0;collapsible=0;recursiveResize=0;expand=0;fontStyle=0;fillColor=#60a917;strokeColor=#2D7600;fontColor=#ffffff;" vertex="1" parent="Lf1DXo_oPqp00C4e2mV5-23">
          <mxGeometry y="47" width="60" height="46" as="geometry" />
        </mxCell>
        <mxCell id="Lf1DXo_oPqp00C4e2mV5-27" value="Y1" style="connectable=0;recursiveResize=0;strokeColor=#2D7600;fillColor=#60a917;align=center;whiteSpace=wrap;html=1;fontColor=#ffffff;gradientColor=#1BA1E2;gradientDirection=radial;" vertex="1" parent="Lf1DXo_oPqp00C4e2mV5-26">
          <mxGeometry width="60" height="46" as="geometry">
            <mxRectangle width="60" height="46" as="alternateBounds" />
          </mxGeometry>
        </mxCell>
        <mxCell id="Lf1DXo_oPqp00C4e2mV5-28" style="shape=tableRow;horizontal=0;startSize=0;swimlaneHead=0;swimlaneBody=0;top=0;left=0;bottom=0;right=0;dropTarget=0;collapsible=0;recursiveResize=0;expand=0;fontStyle=0;fillColor=#1ba1e2;strokeColor=#006EAF;fontColor=#ffffff;" vertex="1" parent="Lf1DXo_oPqp00C4e2mV5-23">
          <mxGeometry y="93" width="60" height="47" as="geometry" />
        </mxCell>
        <mxCell id="Lf1DXo_oPqp00C4e2mV5-29" value="Y2" style="connectable=0;recursiveResize=0;strokeColor=#2D7600;fillColor=#60a917;align=center;whiteSpace=wrap;html=1;fontColor=#ffffff;gradientColor=#1BA1E2;gradientDirection=radial;" vertex="1" parent="Lf1DXo_oPqp00C4e2mV5-28">
          <mxGeometry width="60" height="47" as="geometry">
            <mxRectangle width="60" height="47" as="alternateBounds" />
          </mxGeometry>
        </mxCell>
        <mxCell id="Lf1DXo_oPqp00C4e2mV5-30" style="shape=tableRow;horizontal=0;startSize=0;swimlaneHead=0;swimlaneBody=0;top=0;left=0;bottom=0;right=0;dropTarget=0;collapsible=0;recursiveResize=0;expand=0;fontStyle=0;fillColor=#1ba1e2;strokeColor=#006EAF;fontColor=#ffffff;" vertex="1" parent="Lf1DXo_oPqp00C4e2mV5-23">
          <mxGeometry y="140" width="60" height="47" as="geometry" />
        </mxCell>
        <mxCell id="Lf1DXo_oPqp00C4e2mV5-31" value="Y3" style="connectable=0;recursiveResize=0;strokeColor=#2D7600;fillColor=#60a917;align=center;whiteSpace=wrap;html=1;fontColor=#ffffff;gradientDirection=radial;gradientColor=#1BA1E2;" vertex="1" parent="Lf1DXo_oPqp00C4e2mV5-30">
          <mxGeometry width="60" height="47" as="geometry">
            <mxRectangle width="60" height="47" as="alternateBounds" />
          </mxGeometry>
        </mxCell>
        <mxCell id="Lf1DXo_oPqp00C4e2mV5-32" value="" style="childLayout=tableLayout;recursiveResize=0;shadow=0;fillColor=#008a00;fontColor=#ffffff;strokeColor=#005700;" vertex="1" parent="1">
          <mxGeometry x="340" y="80" width="240" height="47" as="geometry" />
        </mxCell>
        <mxCell id="Lf1DXo_oPqp00C4e2mV5-33" value="" style="shape=tableRow;horizontal=0;startSize=0;swimlaneHead=0;swimlaneBody=0;top=0;left=0;bottom=0;right=0;dropTarget=0;collapsible=0;recursiveResize=0;expand=0;fontStyle=0;fillColor=#1ba1e2;strokeColor=#006EAF;fontColor=#ffffff;" vertex="1" parent="Lf1DXo_oPqp00C4e2mV5-32">
          <mxGeometry width="240" height="47" as="geometry" />
        </mxCell>
        <mxCell id="Lf1DXo_oPqp00C4e2mV5-34" value="F1_0" style="connectable=0;recursiveResize=0;strokeColor=#005700;fillColor=#008a00;align=center;whiteSpace=wrap;html=1;fontColor=#ffffff;" vertex="1" parent="Lf1DXo_oPqp00C4e2mV5-33">
          <mxGeometry width="60" height="47" as="geometry">
            <mxRectangle width="60" height="47" as="alternateBounds" />
          </mxGeometry>
        </mxCell>
        <mxCell id="Lf1DXo_oPqp00C4e2mV5-35" value="F1_1" style="connectable=0;recursiveResize=0;strokeColor=#005700;fillColor=#008a00;align=center;whiteSpace=wrap;html=1;fontColor=#ffffff;" vertex="1" parent="Lf1DXo_oPqp00C4e2mV5-33">
          <mxGeometry x="60" width="60" height="47" as="geometry">
            <mxRectangle width="60" height="47" as="alternateBounds" />
          </mxGeometry>
        </mxCell>
        <mxCell id="Lf1DXo_oPqp00C4e2mV5-36" value="F1_2" style="connectable=0;recursiveResize=0;strokeColor=#005700;fillColor=#008a00;align=center;whiteSpace=wrap;html=1;fontColor=#ffffff;" vertex="1" parent="Lf1DXo_oPqp00C4e2mV5-33">
          <mxGeometry x="120" width="60" height="47" as="geometry">
            <mxRectangle width="60" height="47" as="alternateBounds" />
          </mxGeometry>
        </mxCell>
        <mxCell id="Lf1DXo_oPqp00C4e2mV5-37" value="F1_3" style="connectable=0;recursiveResize=0;strokeColor=#005700;fillColor=#008a00;align=center;whiteSpace=wrap;html=1;fontColor=#ffffff;" vertex="1" parent="Lf1DXo_oPqp00C4e2mV5-33">
          <mxGeometry x="180" width="60" height="47" as="geometry">
            <mxRectangle width="60" height="47" as="alternateBounds" />
          </mxGeometry>
        </mxCell>
        <mxCell id="Lf1DXo_oPqp00C4e2mV5-38" value="" style="childLayout=tableLayout;recursiveResize=0;shadow=0;fillColor=#1ba1e2;fontColor=#ffffff;strokeColor=#006EAF;" vertex="1" parent="1">
          <mxGeometry x="340" y="127" width="240" height="47" as="geometry" />
        </mxCell>
        <mxCell id="Lf1DXo_oPqp00C4e2mV5-39" value="" style="shape=tableRow;horizontal=0;startSize=0;swimlaneHead=0;swimlaneBody=0;top=0;left=0;bottom=0;right=0;dropTarget=0;collapsible=0;recursiveResize=0;expand=0;fontStyle=0;fillColor=#1ba1e2;strokeColor=#006EAF;fontColor=#ffffff;" vertex="1" parent="Lf1DXo_oPqp00C4e2mV5-38">
          <mxGeometry width="240" height="47" as="geometry" />
        </mxCell>
        <mxCell id="Lf1DXo_oPqp00C4e2mV5-40" value="F0_0" style="connectable=0;recursiveResize=0;strokeColor=#2D7600;fillColor=#60a917;align=center;whiteSpace=wrap;html=1;fontColor=#ffffff;" vertex="1" parent="Lf1DXo_oPqp00C4e2mV5-39">
          <mxGeometry width="60" height="47" as="geometry">
            <mxRectangle width="60" height="47" as="alternateBounds" />
          </mxGeometry>
        </mxCell>
        <mxCell id="Lf1DXo_oPqp00C4e2mV5-41" value="F0_1" style="connectable=0;recursiveResize=0;strokeColor=#2D7600;fillColor=#60a917;align=center;whiteSpace=wrap;html=1;fontColor=#ffffff;" vertex="1" parent="Lf1DXo_oPqp00C4e2mV5-39">
          <mxGeometry x="60" width="60" height="47" as="geometry">
            <mxRectangle width="60" height="47" as="alternateBounds" />
          </mxGeometry>
        </mxCell>
        <mxCell id="Lf1DXo_oPqp00C4e2mV5-42" value="F0_2" style="connectable=0;recursiveResize=0;strokeColor=#2D7600;fillColor=#60a917;align=center;whiteSpace=wrap;html=1;fontColor=#ffffff;" vertex="1" parent="Lf1DXo_oPqp00C4e2mV5-39">
          <mxGeometry x="120" width="60" height="47" as="geometry">
            <mxRectangle width="60" height="47" as="alternateBounds" />
          </mxGeometry>
        </mxCell>
        <mxCell id="Lf1DXo_oPqp00C4e2mV5-43" value="F0_3" style="connectable=0;recursiveResize=0;strokeColor=#2D7600;fillColor=#60a917;align=center;whiteSpace=wrap;html=1;fontColor=#ffffff;" vertex="1" parent="Lf1DXo_oPqp00C4e2mV5-39">
          <mxGeometry x="180" width="60" height="47" as="geometry">
            <mxRectangle width="60" height="47" as="alternateBounds" />
          </mxGeometry>
        </mxCell>
        <mxCell id="Lf1DXo_oPqp00C4e2mV5-44" value="" style="childLayout=tableLayout;recursiveResize=0;shadow=0;fillColor=#008A00;fontColor=#ffffff;strokeColor=#005700;gradientDirection=radial;" vertex="1" parent="1">
          <mxGeometry x="750" y="33.5" width="60" height="187" as="geometry" />
        </mxCell>
        <mxCell id="Lf1DXo_oPqp00C4e2mV5-45" value="" style="shape=tableRow;horizontal=0;startSize=0;swimlaneHead=0;swimlaneBody=0;top=0;left=0;bottom=0;right=0;dropTarget=0;collapsible=0;recursiveResize=0;expand=0;fontStyle=0;fillColor=#1ba1e2;strokeColor=#006EAF;fontColor=#ffffff;" vertex="1" parent="Lf1DXo_oPqp00C4e2mV5-44">
          <mxGeometry width="60" height="47" as="geometry" />
        </mxCell>
        <mxCell id="Lf1DXo_oPqp00C4e2mV5-46" value="Y0" style="connectable=0;recursiveResize=0;strokeColor=#2D7600;fillColor=#008A00;align=center;whiteSpace=wrap;html=1;fontColor=#ffffff;gradientColor=#1BA1E2;gradientDirection=radial;" vertex="1" parent="Lf1DXo_oPqp00C4e2mV5-45">
          <mxGeometry width="60" height="47" as="geometry">
            <mxRectangle width="60" height="47" as="alternateBounds" />
          </mxGeometry>
        </mxCell>
        <mxCell id="Lf1DXo_oPqp00C4e2mV5-47" style="shape=tableRow;horizontal=0;startSize=0;swimlaneHead=0;swimlaneBody=0;top=0;left=0;bottom=0;right=0;dropTarget=0;collapsible=0;recursiveResize=0;expand=0;fontStyle=0;fillColor=#60a917;strokeColor=#2D7600;fontColor=#ffffff;" vertex="1" parent="Lf1DXo_oPqp00C4e2mV5-44">
          <mxGeometry y="47" width="60" height="46" as="geometry" />
        </mxCell>
        <mxCell id="Lf1DXo_oPqp00C4e2mV5-48" value="Y1" style="connectable=0;recursiveResize=0;strokeColor=#2D7600;fillColor=#008A00;align=center;whiteSpace=wrap;html=1;fontColor=#ffffff;gradientColor=#1BA1E2;gradientDirection=radial;" vertex="1" parent="Lf1DXo_oPqp00C4e2mV5-47">
          <mxGeometry width="60" height="46" as="geometry">
            <mxRectangle width="60" height="46" as="alternateBounds" />
          </mxGeometry>
        </mxCell>
        <mxCell id="Lf1DXo_oPqp00C4e2mV5-49" style="shape=tableRow;horizontal=0;startSize=0;swimlaneHead=0;swimlaneBody=0;top=0;left=0;bottom=0;right=0;dropTarget=0;collapsible=0;recursiveResize=0;expand=0;fontStyle=0;fillColor=#1ba1e2;strokeColor=#006EAF;fontColor=#ffffff;" vertex="1" parent="Lf1DXo_oPqp00C4e2mV5-44">
          <mxGeometry y="93" width="60" height="47" as="geometry" />
        </mxCell>
        <mxCell id="Lf1DXo_oPqp00C4e2mV5-50" value="Y2" style="connectable=0;recursiveResize=0;strokeColor=#2D7600;fillColor=#008A00;align=center;whiteSpace=wrap;html=1;fontColor=#ffffff;gradientColor=#1BA1E2;gradientDirection=radial;" vertex="1" parent="Lf1DXo_oPqp00C4e2mV5-49">
          <mxGeometry width="60" height="47" as="geometry">
            <mxRectangle width="60" height="47" as="alternateBounds" />
          </mxGeometry>
        </mxCell>
        <mxCell id="Lf1DXo_oPqp00C4e2mV5-51" style="shape=tableRow;horizontal=0;startSize=0;swimlaneHead=0;swimlaneBody=0;top=0;left=0;bottom=0;right=0;dropTarget=0;collapsible=0;recursiveResize=0;expand=0;fontStyle=0;fillColor=#1ba1e2;strokeColor=#006EAF;fontColor=#ffffff;" vertex="1" parent="Lf1DXo_oPqp00C4e2mV5-44">
          <mxGeometry y="140" width="60" height="47" as="geometry" />
        </mxCell>
        <mxCell id="Lf1DXo_oPqp00C4e2mV5-52" value="Y3" style="connectable=0;recursiveResize=0;strokeColor=#2D7600;fillColor=#008A00;align=center;whiteSpace=wrap;html=1;fontColor=#ffffff;gradientDirection=radial;gradientColor=#1BA1E2;" vertex="1" parent="Lf1DXo_oPqp00C4e2mV5-51">
          <mxGeometry width="60" height="47" as="geometry">
            <mxRectangle width="60" height="47" as="alternateBounds" />
          </mxGeometry>
        </mxCell>
        <mxCell id="Lf1DXo_oPqp00C4e2mV5-53" value="" style="shape=curlyBracket;whiteSpace=wrap;html=1;rounded=1;labelPosition=left;verticalLabelPosition=middle;align=right;verticalAlign=middle;" vertex="1" parent="1">
          <mxGeometry x="10" y="14" width="20" height="226" as="geometry" />
        </mxCell>
        <mxCell id="Lf1DXo_oPqp00C4e2mV5-54" value="" style="shape=curlyBracket;whiteSpace=wrap;html=1;rounded=1;labelPosition=left;verticalLabelPosition=middle;align=right;verticalAlign=middle;direction=west;" vertex="1" parent="1">
          <mxGeometry x="590" y="14" width="20" height="226" as="geometry" />
        </mxCell>
        <mxCell id="Lf1DXo_oPqp00C4e2mV5-56" value="" style="shape=image;html=1;verticalAlign=top;verticalLabelPosition=bottom;labelBackgroundColor=#ffffff;imageAspect=0;aspect=fixed;image=https://cdn0.iconfinder.com/data/icons/math-business-icon-set/93/1_5-128.png" vertex="1" parent="1">
          <mxGeometry x="620" y="107" width="40" height="40" as="geometry" />
        </mxCell>
        <mxCell id="Lf1DXo_oPqp00C4e2mV5-57" value="" style="shape=image;html=1;verticalAlign=top;verticalLabelPosition=bottom;labelBackgroundColor=#000000;imageAspect=0;aspect=fixed;image=https://cdn0.iconfinder.com/data/icons/math-business-icon-set/93/1_13-128.png;fontColor=#FFFFFF;imageBackground=none;" vertex="1" parent="1">
          <mxGeometry x="290" y="113.5" width="40" height="40" as="geometry" />
        </mxCell>
      </root>
    </mxGraphModel>
  </diagram>
</mxfile>
